<svg xmlns="http://www.w3.org/2000/svg" xmlns:xlink="http://www.w3.org/1999/xlink" width="26" height="19" viewBox="0 0 25.183 17.701"><defs><path id="a" d="M0 0h25.92v18H0z"/></defs><clipPath id="b"><use xlink:href="#a" overflow="visible"/></clipPath><path clip-path="url(#b)" fill="#FFF" d="M8.228 17.445a.89.89 0 0 0 1.27 0 .896.896 0 0 0 0-1.258L3.06 9.75h21.242c.496 0 .89-.395.89-.89a.897.897 0 0 0-.89-.903H3.06l6.438-6.422a.91.91 0 0 0 0-1.27.89.89 0 0 0-1.27 0l-7.96 7.96a.872.872 0 0 0 0 1.256l7.96 7.966zm0 0"/></svg>