<svg xmlns="http://www.w3.org/2000/svg" xmlns:xlink="http://www.w3.org/1999/xlink" width="26" height="19" viewBox="0 0 25.183 17.705"><defs><path id="a" d="M0 0h25.92v18H0z"/></defs><clipPath id="b"><use xlink:href="#a" overflow="visible"/></clipPath><path clip-path="url(#b)" fill="#FFF" d="M16.965.266a.89.89 0 0 0-1.27 0 .896.896 0 0 0 0 1.258l6.438 6.437H.89a.888.888 0 0 0-.89.893c0 .492.395.902.89.902h21.243l-6.438 6.422a.91.91 0 0 0 0 1.27.89.89 0 0 0 1.27 0l7.96-7.96a.87.87 0 0 0 0-1.254L16.965.266zm0 0"/></svg>