<svg xmlns="http://www.w3.org/2000/svg" xmlns:xlink="http://www.w3.org/1999/xlink" width="26" height="19" viewBox="0 0 25.183 17.701"><defs><path id="a" d="M0 0h25.92v18H0z"/></defs><clipPath id="b"><use xlink:href="#a" overflow="visible"/></clipPath><path clip-path="url(#b)" fill="#FFF" d="M8.228 17.445c.344.355.914.355 1.27 0 .344-.344.344-.914 0-1.258L3.06 9.75h21.242c.496 0 .89-.395.89-.89 0-.493-.394-.903-.89-.903H3.06l6.438-6.422c.344-.356.344-.93 0-1.27-.355-.355-.926-.355-1.27 0l-7.96 7.96c-.356.346-.356.916 0 1.256l7.96 7.966zm0 0"/></svg>